<svg width="600" height="600" xmlns="http://www.w3.org/2000/svg">
 <defs>
  <style type="text/css">
   <![CDATA[
    .fil1 {fill:white;fill-rule:nonzero}
   ]]>
  </style>
 </defs>
 <g>
  <title>background</title>
  <rect fill="none" id="canvas_background" height="602" width="602" y="-1" x="-1"/>
 </g>
 <g>
  <title>Layer 1</title>
  <metadata id="CorelCorpID_0Corel-Layer"/>
  <path id="svg_2" d="m483.61676,141.444c0,-1.117325 0,-3.072052 -0.698059,-4.887405c0,-4.32756 -2.373962,-5.44487 -3.072021,-3.070862c0,1.256683 -1.256714,6.840942 -1.256714,6.840942c-18.989746,81.127579 -92.157898,141.307999 -178.868988,141.307999c-86.711792,0 -159.878998,-60.18071 -179.008995,-141.307999c0,0 -0.558655,-5.584259 -1.256683,-6.840942c-0.558647,-2.374023 -3.072052,-1.256699 -3.072052,3.070862c0,1.815338 0,3.770081 0,4.887405c2.513405,98.998795 83.639809,179.009003 183.338005,179.009003c99.557495,0 180.822998,-79.310989 183.894958,-178.311005c0,0 0,0 0,-0.698029l0.000549,0.000031z" class="fil1"/>
  <path id="svg_3" d="m529.416077,160.686996c0,-4.88739 -3.072021,-5.585434 -3.072021,-3.072052c-0.698059,0.55867 -1.256714,5.44606 -1.954773,6.144089c-21.504272,104.445007 -113.661011,182.639008 -224.388977,182.639008c-110.727982,0 -203.025986,-78.193695 -224.528984,-182.080002c0,0 -1.256699,-5.44606 -1.256699,-6.702759c-0.558655,-2.513397 -3.072052,-1.815353 -3.630714,3.072052c0,3.072052 0,4.887405 0,4.887405c2.513382,124.830994 104.583969,225.087006 229.41597,225.087006c124.831024,0 226.903015,-100.257019 229.416016,-225.087006c0,0 0,-1.815353 0,-4.887405l0.000183,-0.000336z" class="fil1"/>
  <path id="svg_4" d="m575.494507,194.591003c0,0 0,-2.513 0,-5.585007c-0.697998,-4.328995 -3.072021,-5.586014 -3.77002,-3.071991c0,1.255997 -0.559021,4.886978 -1.117004,6.143997c-23.458008,127.902985 -136.002014,224.389008 -270.606995,224.389008c-134.744995,0 -246.591,-96.487 -270.607998,-223.69101c0,0 -1.257,-5.585999 -1.257,-6.841995c-0.558001,-2.514023 -3.071001,-1.257004 -3.62999,3.071991c0,3.072006 0,4.887009 0,5.585007c0,0.55899 0,1.257004 0,1.815002c0,151.919006 123.574013,275.493988 275.49398,275.493988c151.920013,0 275.493988,-123.574982 275.493988,-275.493988c0,-0.557999 0,-1.256012 0,-1.815002l0.001038,0z" class="fil1"/>
 </g>
</svg>